# File created by Blade
# Date/Time:  Wed Jan 21 15:23:43 2015
# Frame Rate: 120.000 fps
#------------------------------------------------------
:FULLY-SPECIFIED
:DEGREES
388
root 33.746862 27.039766 -19.825860 -164.896977 -0.987301 -169.666819
Spine 2.268648 0.425716 8.780385
Head -3.450731 2.435727 0.942184
LeftShoulder -7.716086 -22.491826 -0.549360
LeftArm -24.782635 25.353854 -84.217361
LeftForeArm 23.316933 0.000000 38.226470
LeftHand -4.272715 -0.000000 -3.572192
LeftHandThumb1 -26.253704 0.000000 33.147579
RightShoulder -4.585236 -11.705329 7.272755
RightArm 18.983544 -19.241868 58.177536
RightForeArm -33.879453 0.000000 51.464701
RightHand 0.550977 -0.000000 5.985591
RightHandThumb1 -24.326973 -0.000000 -32.862282
LeftUpLeg -7.653011 34.013933 45.662637
LeftLeg -3.743587 -0.000000 0.000000
LeftFoot -9.883685 11.981207 -18.153818
LeftToeBase 40.224259 -0.000000 -0.000000
RightUpLeg -58.353024 -19.634265 21.599314
RightLeg 81.944314 -0.000000 -0.000000
RightFoot -55.382098 -25.533327 26.660442
RightToeBase 14.783462 -0.000000 -0.000000
389
root 33.741946 27.048969 -19.824284 -164.943577 -0.930978 -169.669621
Spine 2.346553 0.432560 8.851182
Head -3.377096 2.463370 0.867271
LeftShoulder -7.718561 -22.568441 -0.564370
LeftArm -24.837179 25.328436 -84.276415
LeftForeArm 23.344875 -0.000000 38.200648
LeftHand -4.302955 -0.000000 -3.552639
LeftHandThumb1 -26.253704 0.000000 33.147579
RightShoulder -4.547577 -11.732969 7.200052
RightArm 19.119855 -19.359725 58.091618
RightForeArm -33.831824 0.000000 51.548912
RightHand 0.613325 -0.000000 6.012340
RightHandThumb1 -24.326973 -0.000000 -32.862282
LeftUpLeg -7.602964 33.968834 45.680906
LeftLeg -3.672715 -0.000000 0.000000
LeftFoot -9.910161 12.038423 -18.157486
LeftToeBase 40.222303 -0.000000 -0.000000
RightUpLeg -58.239616 -19.204183 21.311935
RightLeg 82.033720 -0.000000 -0.000000
RightFoot -55.087773 -25.426378 26.637295
RightToeBase 14.378336 -0.000000 -0.000000
390
root 33.735385 27.058802 -19.822625 -164.970504 -0.869525 -169.682807
Spine 2.391127 0.459786 8.905891
Head -3.298682 2.497651 0.808792
LeftShoulder -7.733215 -22.594867 -0.579727
LeftArm -24.826544 25.344616 -84.317796
LeftForeArm 23.355450 -0.000000 38.139542
LeftHand -4.295270 -0.000000 -3.519854
LeftHandThumb1 -26.253704 0.000000 33.147579
RightShoulder -4.520776 -11.726383 7.146084
RightArm 19.218985 -19.518288 57.997856
RightForeArm -33.615042 0.000000 51.668100
RightHand 0.507388 -0.000000 5.737918
RightHandThumb1 -24.326973 -0.000000 -32.862282
LeftUpLeg -7.548967 33.909998 45.683802
LeftLeg -3.629169 -0.000000 0.000000
LeftFoot -9.936063 12.112535 -18.190450
LeftToeBase 40.180762 -0.000000 -0.000000
RightUpLeg -58.153612 -18.777652 21.019635
RightLeg 82.128572 -0.000000 -0.000000
RightFoot -54.788146 -25.303232 26.616544
RightToeBase 14.030601 -0.000000 -0.000000
391
root 33.727742 27.069062 -19.818195 -164.989054 -0.806918 -169.699436
Spine 2.419242 0.504416 8.960037
Head -3.209151 2.493407 0.730068
LeftShoulder -7.714027 -22.583120 -0.613098
LeftArm -24.768266 25.348559 -84.336336
LeftForeArm 23.339484 0.000000 38.059536
LeftHand -4.288769 -0.000000 -3.505288
LeftHandThumb1 -26.253704 0.000000 33.147579
RightShoulder -4.467964 -11.705005 7.079799
RightArm 19.236347 -19.619065 57.972672
RightForeArm -33.627460 -0.000000 51.840804
RightHand 0.576010 -0.000000 5.771452
RightHandThumb1 -24.326973 -0.000000 -32.862282
LeftUpLeg -7.507171 33.836037 45.674142
LeftLeg -3.585568 -0.000000 0.000000
LeftFoot -9.961495 12.241623 -18.201609
LeftToeBase 40.056727 -0.000000 -0.000000
RightUpLeg -58.073859 -18.324353 20.705710
RightLeg 82.215197 -0.000000 -0.000000
RightFoot -54.498201 -25.238619 26.550371
RightToeBase 13.898603 -0.000000 -0.000000
392
root 33.711218 27.078214 -19.809597 -165.030299 -0.645706 -169.847383
Spine 2.506896 0.595066 8.814484
Head -3.161884 2.514618 0.718577
LeftShoulder -7.703536 -22.559240 -0.602951
LeftArm -24.650609 25.342216 -84.311613
LeftForeArm 23.321945 -0.000000 37.966843
LeftHand -4.279356 -0.000000 -3.529981
LeftHandThumb1 -26.253704 0.000000 33.147579
RightShoulder -4.465924 -11.731846 7.068492
RightArm 19.409225 -19.744030 57.891908
RightForeArm -33.599661 0.000000 51.956426
RightHand 0.661386 -0.000000 5.923211
RightHandThumb1 -24.326973 -0.000000 -32.862282
LeftUpLeg -7.376877 33.813388 45.521976
LeftLeg -3.585780 -0.000000 0.000000
LeftFoot -9.977976 12.360700 -18.181975
LeftToeBase 40.024482 -0.000000 -0.000000
RightUpLeg -58.003913 -17.814041 20.218239
RightLeg 82.351214 -0.000000 -0.000000
RightFoot -54.206552 -25.166287 26.475472
RightToeBase 13.500067 -0.000000 -0.000000
393
root 33.698816 27.089246 -19.805895 -165.049348 -0.566464 -169.914120
Spine 2.526278 0.620949 8.801171
Head -3.067808 2.574759 0.690731
LeftShoulder -7.692091 -22.585222 -0.623869
LeftArm -24.651152 25.329459 -84.320338
LeftForeArm 23.345312 0.000000 37.900499
LeftHand -4.250820 -0.000000 -3.559053
LeftHandThumb1 -26.253704 0.000000 33.147579
RightShoulder -4.435305 -11.703449 7.022767
RightArm 19.450881 -19.890986 57.856218
RightForeArm -33.695320 0.000000 52.162555
RightHand 0.664864 -0.000000 6.239849
RightHandThumb1 -24.326973 -0.000000 -32.862282
LeftUpLeg -7.306023 33.746871 45.450428
LeftLeg -3.594150 -0.000000 0.000000
LeftFoot -9.990709 12.485633 -18.214285
LeftToeBase 40.004412 -0.000000 -0.000000
RightUpLeg -57.924222 -17.345600 19.839968
RightLeg 82.450953 -0.000000 -0.000000
RightFoot -53.945104 -25.215164 26.302188
RightToeBase 13.814024 -0.000000 -0.000000
